<?xml version="1.0" encoding="UTF-8"?>
<svg xmlns="http://www.w3.org/2000/svg" width="172" height="28" viewBox="0 0 172 28" fill="none">
  <g clip-path="url(#clip0_82_3930)">
    <path d="M20.0255 0.547852C17.5927 0.547852 15.4299 1.69371 14.0432 3.47453C14.8582 3.5986 15.6537 3.80052 16.4176 4.08273C16.4322 4.08759 16.4444 4.09489 16.459 4.09976C17.4078 3.25801 18.6558 2.74468 20.0255 2.74468C22.9984 2.74468 25.4069 5.15317 25.4069 8.12606C25.4069 11.099 22.9984 13.5074 20.0255 13.5074C17.2399 13.5074 14.9506 11.3885 14.6757 8.67345C14.413 8.581 14.143 8.50315 13.868 8.4399C13.778 8.42043 13.6856 8.40097 13.5931 8.38151C13.2209 8.31096 12.8414 8.26717 12.4521 8.25257C12.5203 12.3786 15.8848 15.7043 20.0255 15.7043C24.1661 15.7043 27.6037 12.3105 27.6037 8.12606C27.6037 3.94163 24.2124 0.547852 20.0255 0.547852Z" fill="#DD1B22"></path>
    <path d="M20.0258 15.7043C19.943 15.7043 19.8603 15.7043 19.78 15.6994C19.78 15.7554 19.7825 15.8113 19.7825 15.8697C19.7825 20.0785 16.3741 23.4893 12.1629 23.4893C7.95171 23.4893 4.5409 20.0785 4.5409 15.8697C4.5409 11.6609 7.95171 8.25013 12.1629 8.25013C15.1942 8.25013 17.8095 10.0188 19.038 12.583C19.3129 12.6341 19.5976 12.6608 19.8871 12.6608C21.067 12.6608 22.1472 12.2229 22.9768 11.5052C21.2495 7.22835 17.0602 4.20923 12.1629 4.20923C5.72325 4.20437 0.5 9.42762 0.5 15.8673C0.5 22.3069 5.72325 27.5302 12.1653 27.5302C18.6074 27.5302 23.8282 22.3094 23.8282 15.8673C23.8282 15.478 23.8063 15.0936 23.7699 14.7117C22.6654 15.3394 21.3906 15.7018 20.0282 15.7018" fill="#002C5E"></path>
    <path d="M46.2371 14.2812C47.726 15.0621 48.5702 16.5242 48.5702 18.3075C48.5702 21.0104 46.1933 23.1731 43.2642 23.1731H36.0996V6.31616H43.0696C45.9768 6.31616 48.1372 8.16997 48.1372 10.6514C48.1372 12.1014 47.4244 13.4516 46.2371 14.2836V14.2812ZM44.5999 11.2183C44.5999 10.16 43.8676 9.42043 42.7217 9.42043H39.6831V13.0161H42.7217C43.87 13.0161 44.5999 12.2717 44.5999 11.2183ZM42.9212 19.8256C44.1206 19.8256 44.9113 19.0325 44.9113 17.9255C44.9113 16.8186 44.1206 16.045 42.9212 16.045H39.6831V19.8256H42.9212Z" fill="#002C5E"></path>
    <path d="M74.2024 20.042V23.173H71.7039C68.8429 23.173 67.084 21.4141 67.084 18.5288V12.9941H64.7314V12.2351L69.8671 6.77588H70.5386V10.1697H74.127V12.9966H70.597V18.0641C70.597 19.3219 71.3195 20.0444 72.5992 20.0444H74.1975L74.2024 20.042Z" fill="#002C5E"></path>
    <path d="M84.5588 20.042V23.173H82.0603C79.1993 23.173 77.4404 21.4141 77.4404 18.5288V12.9941H75.0879V12.2351L80.2236 6.77588H80.895V10.1697H84.4834V12.9966H80.9534V18.0641C80.9534 19.3219 81.6759 20.0444 82.9556 20.0444H84.554L84.5588 20.042Z" fill="#002C5E"></path>
    <path d="M109.765 10.0967V13.4126H108.24C106.257 13.4126 105.473 14.2909 105.473 16.4171V23.173H101.958V10.1697H104.213L104.838 11.7632C105.765 10.6124 106.94 10.0967 108.609 10.0967H109.765Z" fill="#002C5E"></path>
    <path d="M124.155 18.5532C124.155 21.1417 122.024 23.1731 119.105 23.1731H112.466V6.31616H119.037C121.764 6.31616 123.693 8.14807 123.693 10.5493C123.693 12.1379 122.793 13.69 121.44 14.3834C123.085 15.011 124.155 16.6483 124.155 18.5532ZM114.137 7.96804V13.5854H119.11C120.735 13.5854 121.971 12.3009 121.971 10.7658C121.971 9.23067 120.689 7.96804 119.059 7.96804H114.137ZM122.416 18.3659C122.416 16.6021 121.01 15.2397 119.18 15.2397H114.137V21.4993H119.144C121.003 21.4993 122.416 20.1613 122.416 18.3659Z" fill="#002C5E"></path>
    <path d="M126.695 16.6702C126.695 12.7582 129.637 9.89233 133.549 9.89233C137.461 9.89233 140.402 12.7825 140.402 16.6702C140.402 20.5578 137.468 23.448 133.549 23.448C129.629 23.448 126.695 20.5578 126.695 16.6702ZM138.73 16.6702C138.73 13.6778 136.541 11.481 133.549 11.481C130.556 11.481 128.367 13.6705 128.367 16.6702C128.367 19.6698 130.563 21.8593 133.549 21.8593C136.534 21.8593 138.73 19.6625 138.73 16.6702Z" fill="#002C5E"></path>
    <path d="M154.997 15.4148V23.1731H153.359V15.7846C153.359 12.999 151.977 11.3958 149.547 11.3958C147.117 11.3958 145.295 13.4078 145.295 15.9233V23.1731H143.657V10.1697H144.84L145.166 12.4663C146.134 10.8874 147.878 9.89478 149.953 9.89478C153.058 9.89478 154.999 12.1792 154.999 15.4148H154.997Z" fill="#002C5E"></path>
    <path d="M171.5 5.54248V23.1731H170.215L169.982 20.9617C168.785 22.4968 166.916 23.448 164.707 23.448C160.832 23.448 158.024 20.5335 158.024 16.6702C158.024 12.8069 160.832 9.89235 164.707 9.89235C166.846 9.89235 168.663 10.7779 169.862 12.223V5.54248H171.5ZM169.965 16.6702C169.965 13.6948 167.787 11.481 164.827 11.481C161.866 11.481 159.698 13.6948 159.698 16.6702C159.698 19.6455 161.88 21.8594 164.827 21.8594C167.773 21.8594 169.965 19.626 169.965 16.6702Z" fill="#002C5E"></path>
    <path d="M60.2409 18.9399C60.1557 19.0494 60.0779 19.1321 59.983 19.2416C59.3675 19.969 58.2752 20.4093 57.2096 20.4093C55.5042 20.4093 54.3364 19.4313 54.0323 17.6578H63.8755C63.9193 17.3148 63.9436 16.9717 63.9436 16.6263C63.9436 12.8798 61.2043 9.80225 57.212 9.80225C53.2198 9.80225 50.4658 12.7557 50.4658 16.6725C50.4658 20.5893 53.3706 23.5428 57.212 23.5428C59.3796 23.5428 61.5254 22.6086 62.771 21.0345L60.2433 18.9399H60.2409ZM57.2096 12.8019C58.7885 12.8019 59.9295 13.6631 60.4258 15.2542H54.1248C54.5335 13.7142 55.6453 12.8019 57.2096 12.8019Z" fill="#002C5E"></path>
    <path d="M95.6813 18.9399C95.5961 19.0494 95.5183 19.1321 95.4234 19.2416C94.8079 19.969 93.7156 20.4093 92.65 20.4093C90.9446 20.4093 89.7769 19.4313 89.4728 17.6578H99.3159C99.3597 17.3148 99.384 16.9717 99.384 16.6263C99.384 12.8798 96.6447 9.80225 92.6524 9.80225C88.6602 9.80225 85.9062 12.7557 85.9062 16.6725C85.9062 20.5893 88.811 23.5428 92.6524 23.5428C94.8201 23.5428 96.9658 22.6086 98.2114 21.0345L95.6837 18.9399H95.6813ZM92.65 12.8019C94.2289 12.8019 95.3699 13.6631 95.8662 15.2542H89.5652C89.9739 13.7142 91.0857 12.8019 92.65 12.8019Z" fill="#002C5E"></path>
  </g>
  <defs>
    <clipPath id="clip0_82_3930">
      <rect width="171" height="26.9823" fill="white" transform="translate(0.5 0.547852)"></rect>
    </clipPath>
  </defs>
</svg>
